<svg width="224" height="192" viewBox="0 0 224 192" fill="none" xmlns="http://www.w3.org/2000/svg">
<path d="M138.746 67.5814C137.93 59.3671 137.522 55.2599 139.904 52.63C142.286 50 146.413 50 154.668 50H177.861C184.15 50 187.294 50 189.508 51.8175C191.721 53.6349 192.332 56.7193 193.555 62.8882L210.989 150.812C212.412 157.992 213.124 161.581 211.368 164.301C209.612 167.021 206.048 167.85 198.919 169.508L167.746 176.759C159.479 178.682 155.346 179.644 152.402 177.535C149.458 175.425 149.038 171.203 148.199 162.757L138.746 67.5814Z" fill="#C75F00"/>
<path d="M30.1256 57.1363C30.5665 53.0762 33.9948 50 38.0788 50H145.465C149.587 50 153.035 53.133 153.428 57.2369L164.16 169.237C164.611 173.935 160.917 178 156.197 178H25.9158C21.1557 178 17.4487 173.869 17.9626 169.136L30.1256 57.1363Z" fill="#F97316"/>
<path d="M42.1284 73.6173C42.8182 68.6766 47.0438 65 52.0323 65H125.04C130.09 65 134.348 68.7652 134.965 73.7773L141.617 127.777C142.352 133.74 137.7 139 131.693 139H44.4931C38.4204 139 33.7495 133.632 34.5892 127.617L42.1284 73.6173Z" fill="#2A2A2A"/>
<rect x="53" y="88" width="12" height="33" rx="6" fill="white"/>
<g clip-path="url(#clip0_3450_7347)">
<rect x="104" y="88" width="12" height="33" rx="6" fill="white"/>
<rect width="216" height="204" transform="translate(17 11)" fill="white"/>
</g>
<path d="M24.4066 123.621C18.0292 123.236 13.1717 117.754 13.5569 111.377L14.3709 97.9012C14.7561 91.5239 20.2383 86.6663 26.6156 87.0515L24.4066 123.621Z" fill="#F97316"/>
<path d="M166.983 84.7621C173.603 84.435 179.234 89.536 179.561 96.1553L180.184 108.776C180.511 115.396 175.411 121.027 168.791 121.354L166.805 121.452L164.997 84.8602L166.983 84.7621Z" fill="#F97316"/>
<path d="M97 48.7273C97 43.9073 100.907 40 105.727 40H107.273C112.093 40 116 43.9073 116 48.7273V52H97V48.7273Z" fill="#F97316"/>
<rect x="96" y="11" width="22" height="22" rx="11" fill="#F97316"/>
<defs>
<clipPath id="clip0_3450_7347">
<rect x="104" y="88" width="12" height="33" rx="6" fill="white"/>
</clipPath>
</defs>
</svg>
